<svg xmlns="http://www.w3.org/2000/svg" width="33.427" height="31.198" viewBox="0 0 33.427 31.198">
  <path id="_012-monitor" data-name="012-monitor" d="M34.084,8H7.343A3.343,3.343,0,0,0,4,11.343V29.17a3.343,3.343,0,0,0,3.343,3.343h7.305l-.743,4.457H11.382a1.114,1.114,0,1,0,0,2.228H30.045a1.114,1.114,0,0,0,0-2.228H27.521l-.743-4.457h7.306a3.343,3.343,0,0,0,3.343-3.343V11.343A3.343,3.343,0,0,0,34.084,8ZM7.343,10.228H34.084A1.114,1.114,0,0,1,35.2,11.343V25.456H6.228V11.343A1.114,1.114,0,0,1,7.343,10.228ZM25.248,36.97h-9.07l.747-4.457H24.5Zm8.836-6.685H7.343A1.114,1.114,0,0,1,6.228,29.17V27.684H35.2V29.17A1.114,1.114,0,0,1,34.084,30.284Z" transform="translate(-4 -8)" fill="#fff"/>
</svg>
