<svg xmlns="http://www.w3.org/2000/svg" width="31.411" height="29.167" viewBox="0 0 31.411 29.167">
  <g id="_53-Love" data-name="53-Love" transform="translate(0 0)">
    <path id="Caminho_1" data-name="Caminho 1" d="M17.705,32.167a1.122,1.122,0,0,1-.527-.135C16.583,31.7,2,23.731,2,11.974A8.974,8.974,0,0,1,10.974,3a8.874,8.874,0,0,1,6.731,3.04A8.874,8.874,0,0,1,24.436,3a8.974,8.974,0,0,1,8.974,8.974c0,11.757-14.584,19.721-15.178,20.058A1.122,1.122,0,0,1,17.705,32.167ZM10.974,5.244a6.731,6.731,0,0,0-6.731,6.731c0,9.255,10.9,16.255,13.462,17.781,2.558-1.526,13.462-8.548,13.462-17.781a6.731,6.731,0,0,0-12.5-3.455,1.122,1.122,0,0,1-1.93,0A6.731,6.731,0,0,0,10.974,5.244Z" transform="translate(-2 -3)" fill="#fff"/>
  </g>
</svg>
