<svg id="_81-Copy" data-name="81-Copy" xmlns="http://www.w3.org/2000/svg" width="28.08" height="32.76" viewBox="0 0 28.08 32.76">
  <path id="Caminho_2" data-name="Caminho 2" d="M31.061,13.359l-7.02-7.02A1.17,1.17,0,0,0,23.21,6H11.51A3.51,3.51,0,0,0,8,9.51V30.57a3.51,3.51,0,0,0,3.51,3.51H27.89a3.51,3.51,0,0,0,3.51-3.51V14.19A1.17,1.17,0,0,0,31.061,13.359ZM24.38,9.99l3.03,3.03H25.55a1.17,1.17,0,0,1-1.17-1.17Zm3.51,21.75H11.51a1.17,1.17,0,0,1-1.17-1.17V9.51a1.17,1.17,0,0,1,1.17-1.17H22.04v3.51a3.51,3.51,0,0,0,3.51,3.51h3.51V30.57A1.17,1.17,0,0,1,27.89,31.74Z" transform="translate(-3.32 -1.32)" fill="#fff"/>
  <path id="Caminho_3" data-name="Caminho 3" d="M23.89,3.17A1.17,1.17,0,0,0,22.72,2H7.51A3.51,3.51,0,0,0,4,5.51v23.4a1.17,1.17,0,0,0,2.34,0V5.51A1.17,1.17,0,0,1,7.51,4.34H22.72A1.17,1.17,0,0,0,23.89,3.17Z" transform="translate(-4 -2)" fill="#fff"/>
</svg>
